<svg width="289" height="175" xmlns="http://www.w3.org/2000/svg" preserveAspectRatio="xMidYMid meet">

 <g>
  <title>background</title>
  <rect fill="none" id="canvas_background" height="402" width="582" y="-1" x="-1"/>
 </g>
 <g>
  <title>Layer 1</title>
  <g id="svg_1" fill="white" transform="translate(0,175) scale(0.10000000149011612,-0.10000000149011612) ">
   <path id="svg_2" d="m1738,1628c-51,-51 -104,-114 -118,-140c-14,-27 -28,-48 -32,-48c-3,0 0,25 9,56c8,31 12,58 10,61c-12,11 -80,-182 -102,-290l-6,-28l-44,31c-40,27 -65,37 -65,25c0,-2 9,-27 20,-55c24,-61 26,-147 5,-178c-9,-12 -69,-58 -134,-101c-245,-167 -324,-306 -300,-533c20,-180 162,-342 356,-404c75,-24 283,-29 372,-10c207,44 355,183 397,374c50,227 -55,434 -290,571c-125,72 -175,137 -164,212c4,27 2,30 -34,35l-38,7l47,66c73,103 119,158 233,274l105,108l-59,-26c-78,-34 -140,-78 -198,-139c-27,-27 -48,-45 -48,-41c0,10 118,186 156,233c47,57 17,34 -78,-60zm-220,-405c9,-4 12,-86 12,-363l0,-357l-25,-34c-61,-85 -77,-120 -82,-179c-7,-71 23,-163 67,-210c16,-17 26,-30 24,-30c-2,0 -27,9 -57,20c-86,32 -175,142 -198,246c-10,45 -10,60 5,97c24,64 59,106 133,162c66,49 95,86 107,135c3,14 -2,7 -13,-15c-24,-51 -51,-79 -112,-117c-108,-66 -159,-167 -140,-273c19,-103 87,-196 174,-239c45,-22 11,-20 -38,3c-94,42 -217,231 -239,367c-9,54 23,140 78,207c22,27 84,80 136,116c102,71 133,112 145,196c5,36 4,34 -13,-15c-28,-82 -40,-97 -130,-156c-45,-29 -103,-74 -128,-99c-61,-61 -109,-164 -108,-230c1,-89 79,-246 166,-336c26,-27 43,-49 39,-49c-16,0 -129,74 -164,108c-167,162 -183,431 -35,593c46,50 130,118 215,172c127,81 158,153 113,267l-20,50l38,-16c20,-9 43,-18 50,-21zm52,-108c0,-73 3,-88 30,-136c104,-185 129,-272 130,-453c0,-110 -24,-292 -46,-345c-24,-57 -23,-31 2,64c27,107 31,248 9,342c-8,35 -38,109 -67,165c-30,60 -57,130 -65,168l-13,65l5,-62c4,-48 16,-86 54,-165c59,-121 81,-204 81,-310c0,-74 -32,-274 -46,-287c-4,-3 -4,7 0,22c36,152 24,278 -41,401c-20,39 -40,94 -43,121l-7,50l-2,-51c-1,-40 6,-64 33,-115c47,-89 60,-157 53,-276c-6,-112 -26,-185 -62,-228l-25,-30l21,48c32,75 30,225 -5,340c-26,87 -26,88 -26,433c0,307 2,345 15,334c11,-9 15,-34 15,-95zm-45,-1033c-9,-9 -45,43 -66,98c-31,82 -24,149 27,233l39,65l3,-195c1,-108 0,-198 -3,-201zm42,168c-2,-58 -9,-116 -15,-130c-8,-19 -11,24 -10,170c0,195 0,195 15,130c10,-44 13,-99 10,-170z"/>
   <path id="svg_3" d="m25,1555c-25,-24 -25,-27 -25,-198c0,-237 -8,-227 184,-227c126,0 145,-2 159,-18c15,-17 17,-69 17,-544c0,-496 1,-526 18,-541c16,-15 47,-17 220,-17c196,0 201,1 216,22c14,20 16,88 16,545l0,522l22,15c18,13 51,16 155,16c183,0 173,-13 173,225c0,172 -1,186 -20,205c-20,20 -33,20 -565,20l-546,0l-24,-25z"/>
   <path id="svg_4" d="m2616,1159c-117,-28 -255,-140 -310,-251c-49,-100 -56,-163 -56,-525c0,-320 1,-334 20,-353c19,-19 33,-20 204,-20c154,0 187,3 200,16c14,13 16,56 16,310c0,324 2,339 60,369c16,8 53,18 82,23l53,7l3,199c3,248 10,236 -132,235c-56,-1 -118,-5 -140,-10z"/>
  </g>
 </g>
</svg>